<?xml version="1.0" encoding="UTF-8"?><svg id="Layer_1" xmlns="http://www.w3.org/2000/svg" viewBox="0 0 350.34 64.47"><defs><style>.cls-1{fill:#f3c206;}</style></defs><polygon class="cls-1" points="304.93 .69 295.69 .69 295.69 15.35 304.93 15.35 308.55 15.35 308.55 64.35 326.72 64.35 326.72 15.23 338.99 15.23 338.99 .69 304.93 .69"/><polygon class="cls-1" points="278.88 15.23 280.34 15.23 291.03 15.23 291.03 .69 280.34 .69 248.04 .69 248.04 15.23 260.67 15.23 260.67 64.47 278.75 64.47 278.88 15.23"/><path class="cls-1" d="M242.82,49.45h-14.67l-.99-.68v-9.52l.99-.92h13.79v-14.42h-13.46l-.96-.88v-6.89l.96-.92h14.82V.69h-27.21c-4.86,0-7.09,3.03-7.33,7.29V57.06c-.12,4.3,2.24,7.41,7.21,7.29h26.85v-14.9Z"/><path class="cls-1" d="M203.22,16.78c-1.43-13.34-11.95-16.25-22.83-16.02h-16.18c-5.73,0-7.88,3.23-7.81,9v54.62h18.05V16.42c.12-.64,.36-1.08,1.04-1.08h4.62c5.13-.36,5.02,6.37,3.27,9.64-2.39,3.78-5.55,5.46-7.65,9.6-1.04,2.87-.6,4.66,0,7.69l7.29,22.11h19l-8.92-26.81c0-6.13,10.92-6.01,10.12-20.79Z"/><path class="cls-1" d="M123.82,34.47c-1,2.87-.56,4.66,0,7.69l7.33,22.11h19.01l-5.58-16.73-3.35-10.08c0-2.23,1.51-3.67,3.35-5.3,3.14-2.75,7.29-6.17,6.77-15.5-.56-4.94-3.59-9.12-6.77-11.71-1.4-1.08-2.79-1.87-4.07-2.31-4.02-1.55-6.78-1.99-11.99-1.99h-16.58c-7.09,0-7.77,3.15-7.77,7.89v55.73h18.41V16.66c.12-.8,.24-1.32,1.04-1.44h4.62c5.02,0,5.02,6.42,3.27,9.64-2.44,3.79-5.58,5.46-7.69,9.6Z"/><path class="cls-1" d="M86.85,7.5c-.92-2.51-2.15-4.14-3.66-5.22-2.11-1.48-4.86-1.79-8.29-1.75l-.08,.04c-.72,0-1.35,0-1.99,.04-4.98,.4-7.5,2.39-9.64,7.01l-14.14,56.65h16.13l1.72-6.73h16.01l.28,1.08,1.55,5.65h15.18L86.85,7.5Zm-12.03,35.9h-5.26l3.27-16.62,1.71-8.77,.28,1.31,5.26,24.07h-5.26Z"/><path class="cls-1" d="M31.47,64.15c11.48,.24,13.79-6.85,13.79-11.71V30.45h-15.9v16.34c-10.4,0-11.75-8.25-11.55-14.54,0-9.6,3.63-14.54,12.43-14.54h9.04V.65h-10.48C13.55,.29,0,10.37,0,31.13v3.62c.64,19.56,12.43,29.4,31.47,29.4Z"/><path class="cls-1" d="M346,0c.74,0,1.46,.19,2.14,.56,.68,.37,1.22,.9,1.61,1.6,.39,.69,.59,1.42,.59,2.18s-.19,1.47-.57,2.16c-.38,.68-.92,1.22-1.6,1.6-.68,.38-1.4,.57-2.16,.57s-1.47-.19-2.16-.57c-.68-.38-1.22-.92-1.6-1.6-.38-.68-.57-1.4-.57-2.16s.19-1.48,.59-2.18c.39-.69,.93-1.23,1.61-1.6,.68-.37,1.39-.56,2.14-.56Zm0,.85c-.6,0-1.17,.15-1.71,.45-.55,.3-.98,.73-1.29,1.28-.32,.56-.47,1.14-.47,1.75s.15,1.19,.46,1.74c.31,.55,.74,.98,1.29,1.29,.55,.31,1.13,.46,1.73,.46s1.18-.15,1.73-.46c.55-.31,.98-.74,1.29-1.29,.31-.55,.46-1.13,.46-1.74s-.16-1.19-.47-1.75c-.32-.56-.75-.99-1.3-1.28-.55-.3-1.12-.45-1.72-.45Zm-1.96,5.8V2.05h.93c.87,0,1.36,0,1.47,.01,.31,.03,.55,.09,.72,.18,.17,.1,.32,.24,.43,.44,.12,.2,.17,.42,.17,.66,0,.33-.11,.62-.32,.85-.22,.24-.52,.38-.91,.44,.14,.05,.25,.11,.32,.17,.08,.06,.18,.18,.31,.35,.03,.05,.15,.23,.34,.56l.54,.93h-1.15l-.38-.75c-.26-.5-.47-.82-.64-.95-.17-.13-.38-.2-.64-.2h-.24v1.89h-.93Zm.93-2.61h.38c.54,0,.87-.02,1-.06,.13-.04,.23-.11,.31-.22,.08-.1,.11-.22,.11-.35s-.04-.24-.11-.34c-.07-.1-.18-.17-.31-.21-.14-.04-.47-.07-1-.07h-.38v1.26Z"/></svg>
